<svg width="140" height="164" fill="none" xmlns="http://www.w3.org/2000/svg"><path d="M138.5 2.5h-89v146h89V2.5Z" stroke="url(#a)" stroke-opacity=".94" stroke-width="3"/><path d="M96.5 13.5h-95v149h95v-149Z" fill="url(#b)" fill-opacity=".94"/><path d="M96.5 13.5h-95v149h95v-149Z" stroke="url(#c)" stroke-width="3"/><path d="M10.5 126a2.5 2.5 0 1 0 0-5 2.5 2.5 0 0 0 0 5Z" fill="#fff" fill-opacity=".65"/><path d="M10.5 125.5a2 2 0 1 0 0-4 2 2 0 0 0 0 4Z" stroke="#fff" stroke-opacity=".65"/><path d="M17.5 161a2.5 2.5 0 1 0 0-5 2.5 2.5 0 0 0 0 5Z" fill="#fff" fill-opacity=".65"/><path d="M17.5 160.5a2 2 0 1 0 0-4 2 2 0 0 0 0 4Z" stroke="#fff" stroke-opacity=".65"/><path d="M61.5 160a2.5 2.5 0 1 0 0-5 2.5 2.5 0 0 0 0 5Z" fill="#fff" fill-opacity=".65"/><path d="M61.5 159.5a2 2 0 1 0 0-4 2 2 0 0 0 0 4Z" stroke="#fff" stroke-opacity=".65"/><path d="M84.5 164a2.5 2.5 0 1 0 0-5 2.5 2.5 0 0 0 0 5Z" fill="#fff" fill-opacity=".65"/><path d="M84.5 163.5a2 2 0 1 0 0-4 2 2 0 0 0 0 4ZM39.5 77.5a2 2 0 1 0 0-4 2 2 0 0 0 0 4ZM25 109.5h14M61 115.5h16M84 144.5h14M10.5 17v24M39.5 41v32M31.5 17v14M64.5 17v5M10 41.5h29M64 22.5h13M31 31.5h33M77.5 22v94M24.5 52v58M39.5 109v23M17.5 132v25M84.5 145v14M61.5 116v39M64.473 31l.071 56M11.5 60.5a2 2 0 1 0 0-4 2 2 0 0 0 0 4Z" stroke="#fff" stroke-opacity=".65"/><path d="M24.5 52a2.5 2.5 0 1 0 0-5 2.5 2.5 0 0 0 0 5Z" fill="#fff" fill-opacity=".65"/><path d="M24.5 51.5a2 2 0 1 0 0-4 2 2 0 0 0 0 4Z" stroke="#fff" stroke-opacity=".65"/><path d="M10.5 17a2.5 2.5 0 1 0 0-5 2.5 2.5 0 0 0 0 5Z" fill="#fff" fill-opacity=".65"/><path d="M10.5 16.5a2 2 0 1 0 0-4 2 2 0 0 0 0 4Z" stroke="#fff" stroke-opacity=".65"/><path d="M31.5 17a2.5 2.5 0 1 0 0-5 2.5 2.5 0 0 0 0 5Z" fill="#fff" fill-opacity=".65"/><path d="M31.5 16.5a2 2 0 1 0 0-4 2 2 0 0 0 0 4ZM64.5 16.5a2 2 0 1 0 0-4 2 2 0 0 0 0 4ZM18 132.5h22M11.5 61.008l-1 60" stroke="#fff" stroke-opacity=".65"/><path d="m22.937 88.078.242-2.464h-.088l-.946 2.134-4.29 6.82h-.66l-4.51-6.842-.902-2.09h-.11l.352 2.42V98H9.957V82.6h1.65l5.214 7.854.814 1.672h.044l.77-1.716 4.95-7.81h1.738V98h-2.2v-9.922Zm6.01-5.478h9.306v1.892h-7.106v4.686h6.49v1.892h-6.49v5.038h7.216V98h-9.416V82.6Zm23.803 1.936h-5.192V98h-2.2V84.536h-5.192V82.6H52.75v1.936Zm8.887 9.438h-6.094L53.915 98H51.76l6.336-15.62h1.144L65.597 98H63.31l-1.672-4.026Zm-5.434-1.848H61l-1.782-4.378-.594-2.354h-.044l-.594 2.398-1.782 4.334ZM67.611 82.6c.293-.044.63-.073 1.012-.088a31.829 31.829 0 0 1 2.442-.088c.41-.015.784-.022 1.122-.022 1.35 0 2.515.198 3.498.594.997.381 1.818.917 2.464 1.606.66.69 1.151 1.51 1.474 2.464.322.953.484 1.995.484 3.124a9.809 9.809 0 0 1-.462 2.992 6.868 6.868 0 0 1-1.43 2.552c-.66.748-1.51 1.35-2.552 1.804-1.027.455-2.274.682-3.74.682-.25 0-.587-.007-1.012-.022-.41-.015-.836-.03-1.276-.044-.44-.015-.85-.037-1.232-.066a6.422 6.422 0 0 1-.792-.066V82.6Zm4.642 1.738h-.66c-.235 0-.47.007-.704.022-.235.015-.448.03-.638.044-.19.015-.338.03-.44.044v11.748c.073.015.212.03.418.044.22 0 .447.007.682.022.234 0 .454.007.66.022h.44c1.1 0 2.016-.169 2.75-.506.748-.352 1.342-.814 1.782-1.386.454-.572.77-1.217.946-1.936.19-.733.286-1.489.286-2.266 0-.66-.088-1.335-.264-2.024a5.15 5.15 0 0 0-.902-1.87c-.426-.572-.99-1.041-1.694-1.408s-1.592-.55-2.662-.55ZM82.545 90.3c0-1.261.154-2.383.462-3.366.323-.997.778-1.833 1.364-2.508a5.787 5.787 0 0 1 2.178-1.562c.866-.367 1.841-.55 2.926-.55 1.159 0 2.171.198 3.036.594.88.381 1.606.924 2.178 1.628.587.69 1.02 1.525 1.298 2.508.294.983.44 2.068.44 3.256 0 1.261-.161 2.39-.484 3.388-.308.983-.762 1.819-1.364 2.508a6.082 6.082 0 0 1-2.2 1.562c-.85.352-1.818.528-2.904.528-1.173 0-2.192-.19-3.058-.572a5.998 5.998 0 0 1-2.156-1.628c-.572-.704-1.004-1.547-1.298-2.53-.278-.983-.418-2.068-.418-3.256Zm2.332 0c0 .836.088 1.62.264 2.354.191.733.47 1.379.836 1.936a4.24 4.24 0 0 0 1.43 1.32c.587.323 1.276.484 2.068.484 1.423 0 2.545-.491 3.366-1.474.836-.983 1.254-2.523 1.254-4.62 0-.821-.095-1.599-.286-2.332a5.784 5.784 0 0 0-.836-1.936 3.986 3.986 0 0 0-1.43-1.32c-.572-.337-1.261-.506-2.068-.506-1.408 0-2.53.499-3.366 1.496-.821.997-1.232 2.53-1.232 4.598Zm13.994 0c0-1.261.154-2.383.462-3.366.323-.997.777-1.833 1.364-2.508a5.783 5.783 0 0 1 2.178-1.562c.865-.367 1.841-.55 2.926-.55 1.159 0 2.171.198 3.036.594.88.381 1.606.924 2.178 1.628.587.69 1.019 1.525 1.298 2.508.293.983.44 2.068.44 3.256 0 1.261-.161 2.39-.484 3.388-.308.983-.763 1.819-1.364 2.508a6.082 6.082 0 0 1-2.2 1.562c-.851.352-1.819.528-2.904.528-1.173 0-2.193-.19-3.058-.572a6 6 0 0 1-2.156-1.628c-.572-.704-1.005-1.547-1.298-2.53-.279-.983-.418-2.068-.418-3.256Zm2.332 0c0 .836.088 1.62.264 2.354.191.733.469 1.379.836 1.936.381.557.858.997 1.43 1.32.587.323 1.276.484 2.068.484 1.423 0 2.545-.491 3.366-1.474.836-.983 1.254-2.523 1.254-4.62a9.22 9.22 0 0 0-.286-2.332 5.79 5.79 0 0 0-.836-1.936 3.986 3.986 0 0 0-1.43-1.32c-.572-.337-1.261-.506-2.068-.506-1.408 0-2.53.499-3.366 1.496-.821.997-1.232 2.53-1.232 4.598Zm14.675-7.546c.308-.059.646-.11 1.012-.154a30.29 30.29 0 0 1 3.366-.198c.734 0 1.438.073 2.112.22.69.147 1.291.389 1.804.726.528.337.946.777 1.254 1.32.323.543.484 1.21.484 2.002 0 .616-.095 1.173-.286 1.672-.19.499-.454.939-.792 1.32-.337.381-.74.704-1.21.968-.454.25-.953.44-1.496.572l1.144.77L127.406 98h-2.53l-4.576-6.49-2.222-.308V98h-2.2V82.754Zm4.444 1.54h-.638c-.205 0-.41.007-.616.022l-.572.044a2.283 2.283 0 0 0-.418.066v5.324h1.804a6.39 6.39 0 0 0 1.452-.154 3.679 3.679 0 0 0 1.166-.506 2.46 2.46 0 0 0 .792-.902c.191-.367.286-.814.286-1.342 0-.792-.278-1.415-.836-1.87-.557-.455-1.364-.682-2.42-.682Z" fill="#19064D"/><defs><linearGradient id="a" x1="94" y1="1" x2="94" y2="150" gradientUnits="userSpaceOnUse"><stop stop-color="#16CD75"/><stop offset="1" stop-color="#54F5D8"/></linearGradient><linearGradient id="b" x1="49" y1="15" x2="49" y2="161" gradientUnits="userSpaceOnUse"><stop stop-color="#16CD75"/><stop offset="1" stop-color="#54F5D8"/></linearGradient><linearGradient id="c" x1="49" y1="15" x2="49" y2="161" gradientUnits="userSpaceOnUse"><stop stop-color="#16CD75"/><stop offset="1" stop-color="#54F5D8"/></linearGradient></defs></svg>