<svg width="356" height="104" fill="none" xmlns="http://www.w3.org/2000/svg"><g clip-path="url(#a)"><path d="M26.036 0C11.654 0 0 11.638 0 26v52c0 14.362 11.654 26 26.036 26h52.072c14.382 0 26.036-11.638 26.036-26V0H26.036Z" fill="#B1EC52"/><path d="M86.06 38.99H73.562L61.675 52V26H52.03v6.294a25.626 25.626 0 0 0-1.015-1.204c-3.51-3.717-8.566-5.597-15.038-5.597-7.466 0-11.717 3.337-13.98 6.146-2.792 3.485-4.04 8.238-3.172 12.103 2.241 10.011 11.547 11.616 18.379 12.503 5.393.697 10.554 1.69 10.427 6.485-.148 4.984-5.774 6.21-9.475 6.21-9.624 0-9.94-7.097-9.94-7.097H17.851c.148 2.66.951 6.948 4.25 10.623 3.596 4.035 9.01 6.062 16.054 6.062 5.414 0 10.342-1.753 13.853-4.879v4.288h9.645v-12.25l3.405-3.739 9.75 16.01h11.23L71.849 54.535 86.061 38.99ZM28.47 41.523c-.846-3.717 2.855-7.012 7.678-7.012 4.335 0 8.671.971 10.32 6.99h5.542v9.21c-6.916-5.682-21.933-2.112-23.54-9.188ZM128.699 71.431c.656.212 1.396.317 2.263.317 1.079 0 1.946-.317 2.602-.971.655-.655 1.078-1.521 1.29-2.472l-13.706-29.02h9.137l8.799 20.826 7.72-20.826h8.692l-12.373 28.598c-1.628 3.78-3.299 6.59-5.139 8.364-1.84 1.838-3.828 2.746-6.049 2.746-.761 0-1.354 0-1.84-.106a8.441 8.441 0 0 1-1.354-.275l-1.036-.316a7.259 7.259 0 0 0-.804-.275v-7.329c.508.317 1.1.592 1.798.74ZM170.366 67.123c-.55.169-1.143.274-1.777.422-.656.106-1.354.211-2.052.275-.698.105-1.396.105-2.051.105a22.3 22.3 0 0 1-4.378-.422c-1.248-.317-2.327-.76-3.194-1.394-.867-.655-1.523-1.52-1.946-2.598-.423-1.035-.656-2.323-.656-3.823v-10.35h7.445v8.893c0 .802.106 1.52.318 1.985.169.55.486.972.909 1.289.423.316.91.549 1.565.654.656.106 1.396.17 2.263.17 1.29 0 2.263-.106 3.025-.318.761-.274 1.353-.549 1.776-.802v-11.87h7.445v28.703h-7.445v-11.32c-.275.084-.698.232-1.247.4ZM207.969 74.452c.064.549.212 1.035.381 1.288.169.38.317.591.55.76.212.17.381.275.656.317V78h-8.27l-.423-1.352c-.212-.549-.275-1.182-.275-2.006l-1.671 1.668c-.592.486-1.184.909-1.882 1.289-.698.38-1.46.697-2.369.908-.91.211-2.009.317-3.236.317-1.29 0-2.475-.17-3.574-.55-1.079-.38-1.989-.971-2.813-1.668a8.005 8.005 0 0 1-1.84-2.81c-.423-1.076-.656-2.365-.656-3.822 0-1.183.169-2.26.55-3.295a8.386 8.386 0 0 1 1.565-2.64 8.727 8.727 0 0 1 2.474-1.88c.973-.549 2.052-.866 3.3-1.035l7.297-1.077c.275-.063.55-.063.867-.169a1.99 1.99 0 0 0 .867-.38 1.95 1.95 0 0 0 .656-.655c.169-.317.275-.697.275-1.183 0-.485-.106-.908-.212-1.288a2.5 2.5 0 0 0-.761-1.035 3.344 3.344 0 0 0-1.396-.697c-.592-.169-1.354-.211-2.221-.211-1.036 0-1.777.105-2.369.274a3.653 3.653 0 0 0-1.459.866c-.381.38-.656.803-.804 1.247l-.317 1.563h-7.445c0-.317.063-.803.169-1.458a9.026 9.026 0 0 1 .656-2.048c.275-.697.761-1.458 1.29-2.218.55-.76 1.248-1.458 2.221-2.112.867-.592 2.009-1.14 3.299-1.521 1.29-.38 2.813-.591 4.653-.655 2.538 0 4.653.275 6.261.76 1.565.55 2.813 1.247 3.722 2.05.867.865 1.46 1.773 1.777 2.808.275 1.035.423 2.05.423 3.084v15.207c-.085.95-.021 1.648.084 2.176Zm-8.967-9.8a7.682 7.682 0 0 1-1.84.549l-1.988.38c-.868.169-1.629.317-2.264.549a5.856 5.856 0 0 0-1.628.803c-.423.38-.761.802-.973 1.288-.211.486-.317 1.077-.317 1.837 0 .592.105 1.141.275 1.563.211.486.486.803.867 1.141.317.275.698.55 1.142.655.486.169.973.211 1.523.211.275 0 .655-.063 1.078-.106a11.49 11.49 0 0 0 1.396-.317c.487-.21.973-.422 1.46-.76.486-.274.909-.697 1.29-1.183a4.623 4.623 0 0 0 .973-1.837c.211-.697.38-1.52.38-2.471v-2.957c-.444.274-.93.486-1.374.654ZM228.824 57.47a4.18 4.18 0 0 0-.909-1.457c-.423-.422-.91-.697-1.46-.908a7.67 7.67 0 0 0-2.115-.275c-1.248 0-2.221.275-2.961.866-.761.592-1.353 1.289-1.734 2.154-.423.909-.656 1.88-.804 2.915-.106 1.035-.211 1.986-.211 2.915 0 .908.063 1.943.169 2.957.106 1.077.317 1.985.761 2.851.381.866.91 1.627 1.735 2.155.761.59 1.776.865 3.087.865.868 0 1.629-.168 2.264-.549a5.662 5.662 0 0 0 1.565-1.246c.423-.549.761-1.077.973-1.668.169-.55.275-1.078.275-1.563h7.783c0 .486-.064 1.077-.212 1.837a15.983 15.983 0 0 1-.867 2.43c-.381.802-.909 1.668-1.523 2.534-.698.866-1.459 1.626-2.432 2.26-.973.697-2.052 1.246-3.342 1.668-1.29.423-2.813.655-4.484.655-2.157 0-4.103-.317-5.774-.972-1.67-.697-3.087-1.668-4.208-2.957-1.142-1.288-2.01-2.85-2.602-4.794-.592-1.88-.909-4.055-.909-6.463 0-2.471.317-4.647.973-6.526.655-1.838 1.565-3.443 2.749-4.753a11.337 11.337 0 0 1 4.272-2.914c1.629-.697 3.511-1.035 5.521-1.035.867 0 1.776.105 2.749.21.91.107 1.84.381 2.75.698.909.38 1.776.803 2.643 1.352.804.549 1.566 1.246 2.264 2.048.655.803 1.184 1.775 1.628 2.852.423 1.077.698 2.365.804 3.823h-7.783c-.212-.718-.381-1.437-.635-1.965ZM263.215 49.318v6.04h-8.693v22.663h-7.445V55.358h-8.692v-6.04h24.83ZM283.942 59.688V49.34h7.445v28.704h-7.445V65.75h-10.956v12.293h-7.445V49.318h7.445v10.35h10.956v.02ZM303.949 67.017l10.491-17.7h7.825v28.704h-7.445V60.702h-.105l-10.153 17.32h-8.164V49.317h7.445v17.7h.106ZM345.574 49.318h9.941L343.628 61.25l12.373 16.77h-9.729l-8.418-12.144-3.024 3.083v9.061h-7.445V49.318h7.445v10.898l10.744-10.898Z" fill="#4D5759"/></g><defs><clipPath id="a"><path fill="#fff" d="M0 0h356v104H0z"/></clipPath></defs></svg>